%TF.GenerationSoftware,KiCad,Pcbnew,(6.99.0-228-g2fdbc41b8f)*%
%TF.CreationDate,2022-01-21T20:17:30+01:00*%
%TF.ProjectId,mob,6d6f622e-6b69-4636-9164-5f7063625858,rev?*%
%TF.SameCoordinates,Original*%
%TF.FileFunction,Soldermask,Top*%
%TF.FilePolarity,Negative*%
%FSLAX46Y46*%
G04 Gerber Fmt 4.6, Leading zero omitted, Abs format (unit mm)*
G04 Created by KiCad (PCBNEW (6.99.0-228-g2fdbc41b8f)) date 2022-01-21 20:17:30*
%MOMM*%
%LPD*%
G01*
G04 APERTURE LIST*
G04 Aperture macros list*
%AMRoundRect*
0 Rectangle with rounded corners*
0 $1 Rounding radius*
0 $2 $3 $4 $5 $6 $7 $8 $9 X,Y pos of 4 corners*
0 Add a 4 corners polygon primitive as box body*
4,1,4,$2,$3,$4,$5,$6,$7,$8,$9,$2,$3,0*
0 Add four circle primitives for the rounded corners*
1,1,$1+$1,$2,$3*
1,1,$1+$1,$4,$5*
1,1,$1+$1,$6,$7*
1,1,$1+$1,$8,$9*
0 Add four rect primitives between the rounded corners*
20,1,$1+$1,$2,$3,$4,$5,0*
20,1,$1+$1,$4,$5,$6,$7,0*
20,1,$1+$1,$6,$7,$8,$9,0*
20,1,$1+$1,$8,$9,$2,$3,0*%
G04 Aperture macros list end*
%ADD10C,2.000000*%
%ADD11R,1.700000X1.700000*%
%ADD12O,1.700000X1.700000*%
%ADD13C,5.600000*%
%ADD14C,3.000000*%
%ADD15R,1.200000X2.200000*%
%ADD16R,5.800000X6.400000*%
%ADD17R,1.200000X0.900000*%
%ADD18RoundRect,0.243750X0.456250X-0.243750X0.456250X0.243750X-0.456250X0.243750X-0.456250X-0.243750X0*%
%ADD19RoundRect,0.243750X-0.456250X0.243750X-0.456250X-0.243750X0.456250X-0.243750X0.456250X0.243750X0*%
%ADD20RoundRect,0.243750X-0.243750X-0.456250X0.243750X-0.456250X0.243750X0.456250X-0.243750X0.456250X0*%
%ADD21R,0.900000X1.200000*%
%ADD22RoundRect,0.250000X-0.325000X-0.650000X0.325000X-0.650000X0.325000X0.650000X-0.325000X0.650000X0*%
%ADD23RoundRect,0.250000X-0.262500X-0.450000X0.262500X-0.450000X0.262500X0.450000X-0.262500X0.450000X0*%
%ADD24RoundRect,0.062500X-0.325000X-0.062500X0.325000X-0.062500X0.325000X0.062500X-0.325000X0.062500X0*%
%ADD25R,1.300000X1.400000*%
%ADD26RoundRect,0.250000X0.450000X-0.262500X0.450000X0.262500X-0.450000X0.262500X-0.450000X-0.262500X0*%
%ADD27RoundRect,0.250000X-0.450000X0.262500X-0.450000X-0.262500X0.450000X-0.262500X0.450000X0.262500X0*%
%ADD28RoundRect,0.150000X0.825000X0.150000X-0.825000X0.150000X-0.825000X-0.150000X0.825000X-0.150000X0*%
%ADD29RoundRect,0.250000X0.325000X0.650000X-0.325000X0.650000X-0.325000X-0.650000X0.325000X-0.650000X0*%
G04 APERTURE END LIST*
D10*
%TO.C,SW1*%
X163000000Y-79900000D03*
X163000000Y-75400000D03*
X169500000Y-79900000D03*
X169500000Y-75400000D03*
%TD*%
D11*
%TO.C,J8*%
X159375000Y-72000000D03*
D12*
X161915000Y-72000000D03*
X164455000Y-72000000D03*
X166995000Y-72000000D03*
X169535000Y-72000000D03*
X172075000Y-72000000D03*
X174615000Y-72000000D03*
%TD*%
D13*
%TO.C,H4*%
X188500000Y-77500000D03*
%TD*%
%TO.C,H3*%
X154000000Y-77500000D03*
%TD*%
%TO.C,H2*%
X188500000Y-51000000D03*
%TD*%
%TO.C,H1*%
X154000000Y-51000000D03*
%TD*%
D14*
%TO.C,JGND1*%
X167200000Y-43000000D03*
%TD*%
%TO.C,J12V1*%
X162000000Y-43000000D03*
%TD*%
%TO.C,J5V1*%
X172500000Y-43000000D03*
%TD*%
D15*
%TO.C,U3*%
X164720000Y-56800000D03*
X169280000Y-56800000D03*
D16*
X167000000Y-50500000D03*
%TD*%
D17*
%TO.C,D8*%
X178500000Y-55150000D03*
X178500000Y-51850000D03*
%TD*%
D18*
%TO.C,D7*%
X173500000Y-60550000D03*
X173500000Y-58675000D03*
%TD*%
D19*
%TO.C,D6*%
X176000000Y-55202500D03*
X176000000Y-57077500D03*
%TD*%
D20*
%TO.C,D5*%
X156625000Y-68500000D03*
X158500000Y-68500000D03*
%TD*%
%TO.C,D4*%
X156625000Y-66000000D03*
X158500000Y-66000000D03*
%TD*%
D17*
%TO.C,D2*%
X178500000Y-64150000D03*
X178500000Y-60850000D03*
%TD*%
D21*
%TO.C,D3*%
X169650000Y-59500000D03*
X166350000Y-59500000D03*
%TD*%
%TO.C,D1*%
X161350000Y-59500000D03*
X164650000Y-59500000D03*
%TD*%
D22*
%TO.C,C2*%
X166525000Y-62000000D03*
X169475000Y-62000000D03*
%TD*%
D14*
%TO.C,J3*%
X182000000Y-43000000D03*
%TD*%
D11*
%TO.C,J2*%
X182025000Y-55475000D03*
D12*
X182025000Y-58015000D03*
X182025000Y-60555000D03*
%TD*%
D23*
%TO.C,R3*%
X160150000Y-66000000D03*
X161975000Y-66000000D03*
%TD*%
D24*
%TO.C,U2*%
X175712500Y-46100000D03*
X175712500Y-46600000D03*
X175712500Y-47100000D03*
X175712500Y-47600000D03*
X178637500Y-47600000D03*
X178637500Y-47100000D03*
X178637500Y-46600000D03*
X178637500Y-46100000D03*
D25*
X177175000Y-46850000D03*
%TD*%
D26*
%TO.C,R6*%
X173500000Y-57000000D03*
X173500000Y-55175000D03*
%TD*%
D27*
%TO.C,R5*%
X176000000Y-58727500D03*
X176000000Y-60552500D03*
%TD*%
D11*
%TO.C,J1*%
X182000000Y-64500000D03*
D12*
X182000000Y-67040000D03*
X182000000Y-69580000D03*
%TD*%
D14*
%TO.C,J4*%
X187000000Y-43000000D03*
%TD*%
D23*
%TO.C,R4*%
X160150000Y-68500000D03*
X161975000Y-68500000D03*
%TD*%
D28*
%TO.C,U1*%
X169475000Y-68405000D03*
X169475000Y-67135000D03*
X169475000Y-65865000D03*
X169475000Y-64595000D03*
X164525000Y-64595000D03*
X164525000Y-65865000D03*
X164525000Y-67135000D03*
X164525000Y-68405000D03*
%TD*%
D29*
%TO.C,C1*%
X164475000Y-62000000D03*
X161525000Y-62000000D03*
%TD*%
M02*
