%TF.GenerationSoftware,KiCad,Pcbnew,(6.99.0-228-g2fdbc41b8f)*%
%TF.CreationDate,2022-01-21T20:17:30+01:00*%
%TF.ProjectId,mob,6d6f622e-6b69-4636-9164-5f7063625858,rev?*%
%TF.SameCoordinates,Original*%
%TF.FileFunction,Paste,Top*%
%TF.FilePolarity,Positive*%
%FSLAX46Y46*%
G04 Gerber Fmt 4.6, Leading zero omitted, Abs format (unit mm)*
G04 Created by KiCad (PCBNEW (6.99.0-228-g2fdbc41b8f)) date 2022-01-21 20:17:30*
%MOMM*%
%LPD*%
G01*
G04 APERTURE LIST*
G04 Aperture macros list*
%AMRoundRect*
0 Rectangle with rounded corners*
0 $1 Rounding radius*
0 $2 $3 $4 $5 $6 $7 $8 $9 X,Y pos of 4 corners*
0 Add a 4 corners polygon primitive as box body*
4,1,4,$2,$3,$4,$5,$6,$7,$8,$9,$2,$3,0*
0 Add four circle primitives for the rounded corners*
1,1,$1+$1,$2,$3*
1,1,$1+$1,$4,$5*
1,1,$1+$1,$6,$7*
1,1,$1+$1,$8,$9*
0 Add four rect primitives between the rounded corners*
20,1,$1+$1,$2,$3,$4,$5,0*
20,1,$1+$1,$4,$5,$6,$7,0*
20,1,$1+$1,$6,$7,$8,$9,0*
20,1,$1+$1,$8,$9,$2,$3,0*%
G04 Aperture macros list end*
%ADD10R,1.200000X2.200000*%
%ADD11R,2.750000X3.050000*%
%ADD12R,1.200000X0.900000*%
%ADD13RoundRect,0.243750X0.456250X-0.243750X0.456250X0.243750X-0.456250X0.243750X-0.456250X-0.243750X0*%
%ADD14RoundRect,0.243750X-0.456250X0.243750X-0.456250X-0.243750X0.456250X-0.243750X0.456250X0.243750X0*%
%ADD15RoundRect,0.243750X-0.243750X-0.456250X0.243750X-0.456250X0.243750X0.456250X-0.243750X0.456250X0*%
%ADD16R,0.900000X1.200000*%
%ADD17RoundRect,0.250000X-0.325000X-0.650000X0.325000X-0.650000X0.325000X0.650000X-0.325000X0.650000X0*%
%ADD18RoundRect,0.250000X-0.262500X-0.450000X0.262500X-0.450000X0.262500X0.450000X-0.262500X0.450000X0*%
%ADD19RoundRect,0.130000X-0.130000X-0.150000X0.130000X-0.150000X0.130000X0.150000X-0.130000X0.150000X0*%
%ADD20RoundRect,0.062500X-0.325000X-0.062500X0.325000X-0.062500X0.325000X0.062500X-0.325000X0.062500X0*%
%ADD21RoundRect,0.250000X0.450000X-0.262500X0.450000X0.262500X-0.450000X0.262500X-0.450000X-0.262500X0*%
%ADD22RoundRect,0.250000X-0.450000X0.262500X-0.450000X-0.262500X0.450000X-0.262500X0.450000X0.262500X0*%
%ADD23RoundRect,0.150000X0.825000X0.150000X-0.825000X0.150000X-0.825000X-0.150000X0.825000X-0.150000X0*%
%ADD24RoundRect,0.250000X0.325000X0.650000X-0.325000X0.650000X-0.325000X-0.650000X0.325000X-0.650000X0*%
G04 APERTURE END LIST*
D10*
%TO.C,U3*%
X164720000Y-56800000D03*
X169280000Y-56800000D03*
D11*
X168525000Y-48825000D03*
X165475000Y-52175000D03*
X165475000Y-48825000D03*
X168525000Y-52175000D03*
%TD*%
D12*
%TO.C,D8*%
X178500000Y-55150000D03*
X178500000Y-51850000D03*
%TD*%
D13*
%TO.C,D7*%
X173500000Y-60550000D03*
X173500000Y-58675000D03*
%TD*%
D14*
%TO.C,D6*%
X176000000Y-55202500D03*
X176000000Y-57077500D03*
%TD*%
D15*
%TO.C,D5*%
X156625000Y-68500000D03*
X158500000Y-68500000D03*
%TD*%
%TO.C,D4*%
X156625000Y-66000000D03*
X158500000Y-66000000D03*
%TD*%
D12*
%TO.C,D2*%
X178500000Y-64150000D03*
X178500000Y-60850000D03*
%TD*%
D16*
%TO.C,D3*%
X169650000Y-59500000D03*
X166350000Y-59500000D03*
%TD*%
%TO.C,D1*%
X161350000Y-59500000D03*
X164650000Y-59500000D03*
%TD*%
D17*
%TO.C,C2*%
X166525000Y-62000000D03*
X169475000Y-62000000D03*
%TD*%
D18*
%TO.C,R3*%
X160150000Y-66000000D03*
X161975000Y-66000000D03*
%TD*%
D19*
%TO.C,U2*%
X176850000Y-46500000D03*
X176850000Y-47200000D03*
X177500000Y-46500000D03*
X177500000Y-47200000D03*
D20*
X175712500Y-46100000D03*
X175712500Y-46600000D03*
X175712500Y-47100000D03*
X175712500Y-47600000D03*
X178637500Y-47600000D03*
X178637500Y-47100000D03*
X178637500Y-46600000D03*
X178637500Y-46100000D03*
%TD*%
D21*
%TO.C,R6*%
X173500000Y-57000000D03*
X173500000Y-55175000D03*
%TD*%
D22*
%TO.C,R5*%
X176000000Y-58727500D03*
X176000000Y-60552500D03*
%TD*%
D18*
%TO.C,R4*%
X160150000Y-68500000D03*
X161975000Y-68500000D03*
%TD*%
D23*
%TO.C,U1*%
X169475000Y-68405000D03*
X169475000Y-67135000D03*
X169475000Y-65865000D03*
X169475000Y-64595000D03*
X164525000Y-64595000D03*
X164525000Y-65865000D03*
X164525000Y-67135000D03*
X164525000Y-68405000D03*
%TD*%
D24*
%TO.C,C1*%
X164475000Y-62000000D03*
X161525000Y-62000000D03*
%TD*%
M02*
