%TF.GenerationSoftware,KiCad,Pcbnew,(6.99.0-228-g2fdbc41b8f)*%
%TF.CreationDate,2022-01-21T20:17:30+01:00*%
%TF.ProjectId,mob,6d6f622e-6b69-4636-9164-5f7063625858,rev?*%
%TF.SameCoordinates,Original*%
%TF.FileFunction,Legend,Top*%
%TF.FilePolarity,Positive*%
%FSLAX46Y46*%
G04 Gerber Fmt 4.6, Leading zero omitted, Abs format (unit mm)*
G04 Created by KiCad (PCBNEW (6.99.0-228-g2fdbc41b8f)) date 2022-01-21 20:17:30*
%MOMM*%
%LPD*%
G01*
G04 APERTURE LIST*
%ADD10C,0.150000*%
%ADD11C,0.120000*%
G04 APERTURE END LIST*
D10*
%TO.C,SW1*%
X158803572Y-78004761D02*
X158946429Y-78052380D01*
X159184524Y-78052380D01*
X159279762Y-78004761D01*
X159327381Y-77957142D01*
X159375000Y-77861904D01*
X159375000Y-77766666D01*
X159327381Y-77671428D01*
X159279762Y-77623809D01*
X159184524Y-77576190D01*
X158994048Y-77528571D01*
X158898810Y-77480952D01*
X158851191Y-77433333D01*
X158803572Y-77338095D01*
X158803572Y-77242857D01*
X158851191Y-77147619D01*
X158898810Y-77100000D01*
X158994048Y-77052380D01*
X159232143Y-77052380D01*
X159375000Y-77100000D01*
X159667857Y-77052380D02*
X159905952Y-78052380D01*
X160096428Y-77338095D01*
X160286904Y-78052380D01*
X160525000Y-77052380D01*
X161436904Y-78052380D02*
X160865476Y-78052380D01*
X161151190Y-78052380D02*
X161151190Y-77052380D01*
X161055952Y-77195238D01*
X160960714Y-77290476D01*
X160865476Y-77338095D01*
%TO.C,J8*%
X156057380Y-72269046D02*
X156771666Y-72269046D01*
X156914523Y-72316665D01*
X157009761Y-72411903D01*
X157057380Y-72554760D01*
X157057380Y-72649998D01*
X156485952Y-71738094D02*
X156438333Y-71833332D01*
X156390714Y-71880951D01*
X156295476Y-71928570D01*
X156247857Y-71928570D01*
X156152619Y-71880951D01*
X156105000Y-71833332D01*
X156057380Y-71738094D01*
X156057380Y-71547618D01*
X156105000Y-71452380D01*
X156152619Y-71404761D01*
X156247857Y-71357142D01*
X156295476Y-71357142D01*
X156390714Y-71404761D01*
X156438333Y-71452380D01*
X156485952Y-71547618D01*
X156485952Y-71738094D01*
X156533571Y-71833332D01*
X156581190Y-71880951D01*
X156676428Y-71928570D01*
X156866904Y-71928570D01*
X156962142Y-71880951D01*
X157009761Y-71833332D01*
X157057380Y-71738094D01*
X157057380Y-71547618D01*
X157009761Y-71452380D01*
X156962142Y-71404761D01*
X156866904Y-71357142D01*
X156676428Y-71357142D01*
X156581190Y-71404761D01*
X156533571Y-71452380D01*
X156485952Y-71547618D01*
%TO.C,H4*%
X187778572Y-74152380D02*
X187778572Y-73152380D01*
X187778572Y-73628571D02*
X188350000Y-73628571D01*
X188350000Y-74152380D02*
X188350000Y-73152380D01*
X189166666Y-73485714D02*
X189166666Y-74152380D01*
X188928571Y-73104761D02*
X188690476Y-73819047D01*
X189309523Y-73819047D01*
%TO.C,H3*%
X153302382Y-74152380D02*
X153302382Y-73152380D01*
X153302382Y-73628571D02*
X153873810Y-73628571D01*
X153873810Y-74152380D02*
X153873810Y-73152380D01*
X154166667Y-73152380D02*
X154785714Y-73152380D01*
X154452381Y-73533333D01*
X154595238Y-73533333D01*
X154690476Y-73580952D01*
X154738095Y-73628571D01*
X154785714Y-73723809D01*
X154785714Y-73961904D01*
X154738095Y-74057142D01*
X154690476Y-74104761D01*
X154595238Y-74152380D01*
X154309524Y-74152380D01*
X154214286Y-74104761D01*
X154166667Y-74057142D01*
%TO.C,H2*%
X187802382Y-47652380D02*
X187802382Y-46652380D01*
X187802382Y-47128571D02*
X188373810Y-47128571D01*
X188373810Y-47652380D02*
X188373810Y-46652380D01*
X188714286Y-46747619D02*
X188761905Y-46700000D01*
X188857143Y-46652380D01*
X189095238Y-46652380D01*
X189190476Y-46700000D01*
X189238095Y-46747619D01*
X189285714Y-46842857D01*
X189285714Y-46938095D01*
X189238095Y-47080952D01*
X188666667Y-47652380D01*
X189285714Y-47652380D01*
%TO.C,H1*%
X153302382Y-47652380D02*
X153302382Y-46652380D01*
X153302382Y-47128571D02*
X153873810Y-47128571D01*
X153873810Y-47652380D02*
X153873810Y-46652380D01*
X154785714Y-47652380D02*
X154214286Y-47652380D01*
X154500000Y-47652380D02*
X154500000Y-46652380D01*
X154404762Y-46795238D01*
X154309524Y-46890476D01*
X154214286Y-46938095D01*
%TO.C,JGND1*%
X165491668Y-45002380D02*
X165491668Y-45716666D01*
X165444049Y-45859523D01*
X165348811Y-45954761D01*
X165205954Y-46002380D01*
X165110716Y-46002380D01*
X166403572Y-45050000D02*
X166308334Y-45002380D01*
X166165477Y-45002380D01*
X166022620Y-45050000D01*
X165927382Y-45145238D01*
X165879763Y-45240476D01*
X165832144Y-45430952D01*
X165832144Y-45573809D01*
X165879763Y-45764285D01*
X165927382Y-45859523D01*
X166022620Y-45954761D01*
X166165477Y-46002380D01*
X166260715Y-46002380D01*
X166403572Y-45954761D01*
X166451191Y-45907142D01*
X166451191Y-45573809D01*
X166260715Y-45573809D01*
X166839286Y-46002380D02*
X166839286Y-45002380D01*
X167410714Y-46002380D01*
X167410714Y-45002380D01*
X167798809Y-46002380D02*
X167798809Y-45002380D01*
X168036904Y-45002380D01*
X168179761Y-45050000D01*
X168274999Y-45145238D01*
X168322618Y-45240476D01*
X168370237Y-45430952D01*
X168370237Y-45573809D01*
X168322618Y-45764285D01*
X168274999Y-45859523D01*
X168179761Y-45954761D01*
X168036904Y-46002380D01*
X167798809Y-46002380D01*
X169282141Y-46002380D02*
X168710713Y-46002380D01*
X168996427Y-46002380D02*
X168996427Y-45002380D01*
X168901189Y-45145238D01*
X168805951Y-45240476D01*
X168710713Y-45288095D01*
%TO.C,J12V1*%
X160363097Y-45002380D02*
X160363097Y-45716666D01*
X160315478Y-45859523D01*
X160220240Y-45954761D01*
X160077383Y-46002380D01*
X159982145Y-46002380D01*
X161275001Y-46002380D02*
X160703573Y-46002380D01*
X160989287Y-46002380D02*
X160989287Y-45002380D01*
X160894049Y-45145238D01*
X160798811Y-45240476D01*
X160703573Y-45288095D01*
X161615477Y-45097619D02*
X161663096Y-45050000D01*
X161758334Y-45002380D01*
X161996429Y-45002380D01*
X162091667Y-45050000D01*
X162139286Y-45097619D01*
X162186905Y-45192857D01*
X162186905Y-45288095D01*
X162139286Y-45430952D01*
X161567858Y-46002380D01*
X162186905Y-46002380D01*
X162432143Y-45002380D02*
X162765476Y-46002380D01*
X163098809Y-45002380D01*
X164010713Y-46002380D02*
X163439285Y-46002380D01*
X163724999Y-46002380D02*
X163724999Y-45002380D01*
X163629761Y-45145238D01*
X163534523Y-45240476D01*
X163439285Y-45288095D01*
%TO.C,J5V1*%
X171319049Y-45002380D02*
X171319049Y-45716666D01*
X171271430Y-45859523D01*
X171176192Y-45954761D01*
X171033335Y-46002380D01*
X170938097Y-46002380D01*
X172183334Y-45002380D02*
X171707144Y-45002380D01*
X171659525Y-45478571D01*
X171707144Y-45430952D01*
X171802382Y-45383333D01*
X172040477Y-45383333D01*
X172135715Y-45430952D01*
X172183334Y-45478571D01*
X172230953Y-45573809D01*
X172230953Y-45811904D01*
X172183334Y-45907142D01*
X172135715Y-45954761D01*
X172040477Y-46002380D01*
X171802382Y-46002380D01*
X171707144Y-45954761D01*
X171659525Y-45907142D01*
X172476191Y-45002380D02*
X172809524Y-46002380D01*
X173142857Y-45002380D01*
X174054761Y-46002380D02*
X173483333Y-46002380D01*
X173769047Y-46002380D02*
X173769047Y-45002380D01*
X173673809Y-45145238D01*
X173578571Y-45240476D01*
X173483333Y-45288095D01*
%TO.C,U3*%
X161952380Y-53297617D02*
X162761904Y-53297617D01*
X162857142Y-53249998D01*
X162904761Y-53202379D01*
X162952380Y-53107141D01*
X162952380Y-52916665D01*
X162904761Y-52821427D01*
X162857142Y-52773808D01*
X162761904Y-52726189D01*
X161952380Y-52726189D01*
X161952380Y-52433332D02*
X161952380Y-51814285D01*
X162333333Y-52147618D01*
X162333333Y-52004761D01*
X162380952Y-51909523D01*
X162428571Y-51861904D01*
X162523809Y-51814285D01*
X162761904Y-51814285D01*
X162857142Y-51861904D01*
X162904761Y-51909523D01*
X162952380Y-52004761D01*
X162952380Y-52290475D01*
X162904761Y-52385713D01*
X162857142Y-52433332D01*
%TO.C,D8*%
X178952380Y-50697617D02*
X177952380Y-50697617D01*
X177952380Y-50459522D01*
X178000000Y-50316665D01*
X178095238Y-50221427D01*
X178190476Y-50173808D01*
X178380952Y-50126189D01*
X178523809Y-50126189D01*
X178714285Y-50173808D01*
X178809523Y-50221427D01*
X178904761Y-50316665D01*
X178952380Y-50459522D01*
X178952380Y-50697617D01*
X178380952Y-49595237D02*
X178333333Y-49690475D01*
X178285714Y-49738094D01*
X178190476Y-49785713D01*
X178142857Y-49785713D01*
X178047619Y-49738094D01*
X178000000Y-49690475D01*
X177952380Y-49595237D01*
X177952380Y-49404761D01*
X178000000Y-49309523D01*
X178047619Y-49261904D01*
X178142857Y-49214285D01*
X178190476Y-49214285D01*
X178285714Y-49261904D01*
X178333333Y-49309523D01*
X178380952Y-49404761D01*
X178380952Y-49595237D01*
X178428571Y-49690475D01*
X178476190Y-49738094D01*
X178571428Y-49785713D01*
X178761904Y-49785713D01*
X178857142Y-49738094D01*
X178904761Y-49690475D01*
X178952380Y-49595237D01*
X178952380Y-49404761D01*
X178904761Y-49309523D01*
X178857142Y-49261904D01*
X178761904Y-49214285D01*
X178571428Y-49214285D01*
X178476190Y-49261904D01*
X178428571Y-49309523D01*
X178380952Y-49404761D01*
%TO.C,D7*%
X173952380Y-63221427D02*
X172952380Y-63221427D01*
X172952380Y-62983332D01*
X173000000Y-62840475D01*
X173095238Y-62745237D01*
X173190476Y-62697618D01*
X173380952Y-62649999D01*
X173523809Y-62649999D01*
X173714285Y-62697618D01*
X173809523Y-62745237D01*
X173904761Y-62840475D01*
X173952380Y-62983332D01*
X173952380Y-63221427D01*
X172952380Y-62357142D02*
X172952380Y-61690476D01*
X173952380Y-62119047D01*
%TO.C,D6*%
X176452380Y-53837617D02*
X175452380Y-53837617D01*
X175452380Y-53599522D01*
X175500000Y-53456665D01*
X175595238Y-53361427D01*
X175690476Y-53313808D01*
X175880952Y-53266189D01*
X176023809Y-53266189D01*
X176214285Y-53313808D01*
X176309523Y-53361427D01*
X176404761Y-53456665D01*
X176452380Y-53599522D01*
X176452380Y-53837617D01*
X175452380Y-52449523D02*
X175452380Y-52639999D01*
X175500000Y-52735237D01*
X175547619Y-52782856D01*
X175690476Y-52878094D01*
X175880952Y-52925713D01*
X176261904Y-52925713D01*
X176357142Y-52878094D01*
X176404761Y-52830475D01*
X176452380Y-52735237D01*
X176452380Y-52544761D01*
X176404761Y-52449523D01*
X176357142Y-52401904D01*
X176261904Y-52354285D01*
X176023809Y-52354285D01*
X175928571Y-52401904D01*
X175880952Y-52449523D01*
X175833333Y-52544761D01*
X175833333Y-52735237D01*
X175880952Y-52830475D01*
X175928571Y-52878094D01*
X176023809Y-52925713D01*
%TO.C,D5*%
X151802382Y-68952380D02*
X151802382Y-67952380D01*
X152040477Y-67952380D01*
X152183334Y-68000000D01*
X152278572Y-68095238D01*
X152326191Y-68190476D01*
X152373810Y-68380952D01*
X152373810Y-68523809D01*
X152326191Y-68714285D01*
X152278572Y-68809523D01*
X152183334Y-68904761D01*
X152040477Y-68952380D01*
X151802382Y-68952380D01*
X153238095Y-67952380D02*
X152761905Y-67952380D01*
X152714286Y-68428571D01*
X152761905Y-68380952D01*
X152857143Y-68333333D01*
X153095238Y-68333333D01*
X153190476Y-68380952D01*
X153238095Y-68428571D01*
X153285714Y-68523809D01*
X153285714Y-68761904D01*
X153238095Y-68857142D01*
X153190476Y-68904761D01*
X153095238Y-68952380D01*
X152857143Y-68952380D01*
X152761905Y-68904761D01*
X152714286Y-68857142D01*
%TO.C,D4*%
X151778572Y-66452380D02*
X151778572Y-65452380D01*
X152016667Y-65452380D01*
X152159524Y-65500000D01*
X152254762Y-65595238D01*
X152302381Y-65690476D01*
X152350000Y-65880952D01*
X152350000Y-66023809D01*
X152302381Y-66214285D01*
X152254762Y-66309523D01*
X152159524Y-66404761D01*
X152016667Y-66452380D01*
X151778572Y-66452380D01*
X153166666Y-65785714D02*
X153166666Y-66452380D01*
X152928571Y-65404761D02*
X152690476Y-66119047D01*
X153309523Y-66119047D01*
%TO.C,D2*%
X178952380Y-66697617D02*
X177952380Y-66697617D01*
X177952380Y-66459522D01*
X178000000Y-66316665D01*
X178095238Y-66221427D01*
X178190476Y-66173808D01*
X178380952Y-66126189D01*
X178523809Y-66126189D01*
X178714285Y-66173808D01*
X178809523Y-66221427D01*
X178904761Y-66316665D01*
X178952380Y-66459522D01*
X178952380Y-66697617D01*
X178047619Y-65785713D02*
X178000000Y-65738094D01*
X177952380Y-65642856D01*
X177952380Y-65404761D01*
X178000000Y-65309523D01*
X178047619Y-65261904D01*
X178142857Y-65214285D01*
X178238095Y-65214285D01*
X178380952Y-65261904D01*
X178952380Y-65833332D01*
X178952380Y-65214285D01*
%TO.C,D3*%
X170802382Y-59952380D02*
X170802382Y-58952380D01*
X171040477Y-58952380D01*
X171183334Y-59000000D01*
X171278572Y-59095238D01*
X171326191Y-59190476D01*
X171373810Y-59380952D01*
X171373810Y-59523809D01*
X171326191Y-59714285D01*
X171278572Y-59809523D01*
X171183334Y-59904761D01*
X171040477Y-59952380D01*
X170802382Y-59952380D01*
X171666667Y-58952380D02*
X172285714Y-58952380D01*
X171952381Y-59333333D01*
X172095238Y-59333333D01*
X172190476Y-59380952D01*
X172238095Y-59428571D01*
X172285714Y-59523809D01*
X172285714Y-59761904D01*
X172238095Y-59857142D01*
X172190476Y-59904761D01*
X172095238Y-59952380D01*
X171809524Y-59952380D01*
X171714286Y-59904761D01*
X171666667Y-59857142D01*
%TO.C,D1*%
X158802382Y-59952380D02*
X158802382Y-58952380D01*
X159040477Y-58952380D01*
X159183334Y-59000000D01*
X159278572Y-59095238D01*
X159326191Y-59190476D01*
X159373810Y-59380952D01*
X159373810Y-59523809D01*
X159326191Y-59714285D01*
X159278572Y-59809523D01*
X159183334Y-59904761D01*
X159040477Y-59952380D01*
X158802382Y-59952380D01*
X160285714Y-59952380D02*
X159714286Y-59952380D01*
X160000000Y-59952380D02*
X160000000Y-58952380D01*
X159904762Y-59095238D01*
X159809524Y-59190476D01*
X159714286Y-59238095D01*
%TO.C,C2*%
X171373810Y-62357142D02*
X171326191Y-62404761D01*
X171183334Y-62452380D01*
X171088096Y-62452380D01*
X170945239Y-62404761D01*
X170850001Y-62309523D01*
X170802382Y-62214285D01*
X170754763Y-62023809D01*
X170754763Y-61880952D01*
X170802382Y-61690476D01*
X170850001Y-61595238D01*
X170945239Y-61500000D01*
X171088096Y-61452380D01*
X171183334Y-61452380D01*
X171326191Y-61500000D01*
X171373810Y-61547619D01*
X171714286Y-61547619D02*
X171761905Y-61500000D01*
X171857143Y-61452380D01*
X172095238Y-61452380D01*
X172190476Y-61500000D01*
X172238095Y-61547619D01*
X172285714Y-61642857D01*
X172285714Y-61738095D01*
X172238095Y-61880952D01*
X171666667Y-62452380D01*
X172285714Y-62452380D01*
%TO.C,J3*%
X181730953Y-45002380D02*
X181730953Y-45716666D01*
X181683334Y-45859523D01*
X181588096Y-45954761D01*
X181445239Y-46002380D01*
X181350001Y-46002380D01*
X182023810Y-45002380D02*
X182642857Y-45002380D01*
X182309524Y-45383333D01*
X182452381Y-45383333D01*
X182547619Y-45430952D01*
X182595238Y-45478571D01*
X182642857Y-45573809D01*
X182642857Y-45811904D01*
X182595238Y-45907142D01*
X182547619Y-45954761D01*
X182452381Y-46002380D01*
X182166667Y-46002380D01*
X182071429Y-45954761D01*
X182023810Y-45907142D01*
%TO.C,J2*%
X181755953Y-52452380D02*
X181755953Y-53166666D01*
X181708334Y-53309523D01*
X181613096Y-53404761D01*
X181470239Y-53452380D01*
X181375001Y-53452380D01*
X182096429Y-52547619D02*
X182144048Y-52500000D01*
X182239286Y-52452380D01*
X182477381Y-52452380D01*
X182572619Y-52500000D01*
X182620238Y-52547619D01*
X182667857Y-52642857D01*
X182667857Y-52738095D01*
X182620238Y-52880952D01*
X182048810Y-53452380D01*
X182667857Y-53452380D01*
%TO.C,R3*%
X154373810Y-66452380D02*
X154040477Y-65976190D01*
X153802382Y-66452380D02*
X153802382Y-65452380D01*
X154183334Y-65452380D01*
X154278572Y-65500000D01*
X154326191Y-65547619D01*
X154373810Y-65642857D01*
X154373810Y-65785714D01*
X154326191Y-65880952D01*
X154278572Y-65928571D01*
X154183334Y-65976190D01*
X153802382Y-65976190D01*
X154666667Y-65452380D02*
X155285714Y-65452380D01*
X154952381Y-65833333D01*
X155095238Y-65833333D01*
X155190476Y-65880952D01*
X155238095Y-65928571D01*
X155285714Y-66023809D01*
X155285714Y-66261904D01*
X155238095Y-66357142D01*
X155190476Y-66404761D01*
X155095238Y-66452380D01*
X154809524Y-66452380D01*
X154714286Y-66404761D01*
X154666667Y-66357142D01*
%TO.C,U2*%
X176477382Y-44352380D02*
X176477382Y-45161904D01*
X176525001Y-45257142D01*
X176572620Y-45304761D01*
X176667858Y-45352380D01*
X176858334Y-45352380D01*
X176953572Y-45304761D01*
X177001191Y-45257142D01*
X177048810Y-45161904D01*
X177048810Y-44352380D01*
X177389286Y-44447619D02*
X177436905Y-44400000D01*
X177532143Y-44352380D01*
X177770238Y-44352380D01*
X177865476Y-44400000D01*
X177913095Y-44447619D01*
X177960714Y-44542857D01*
X177960714Y-44638095D01*
X177913095Y-44780952D01*
X177341667Y-45352380D01*
X177960714Y-45352380D01*
%TO.C,R6*%
X173952380Y-53626189D02*
X173476190Y-53959522D01*
X173952380Y-54197617D02*
X172952380Y-54197617D01*
X172952380Y-53816665D01*
X173000000Y-53721427D01*
X173047619Y-53673808D01*
X173142857Y-53626189D01*
X173285714Y-53626189D01*
X173380952Y-53673808D01*
X173428571Y-53721427D01*
X173476190Y-53816665D01*
X173476190Y-54197617D01*
X172952380Y-52809523D02*
X172952380Y-52999999D01*
X173000000Y-53095237D01*
X173047619Y-53142856D01*
X173190476Y-53238094D01*
X173380952Y-53285713D01*
X173761904Y-53285713D01*
X173857142Y-53238094D01*
X173904761Y-53190475D01*
X173952380Y-53095237D01*
X173952380Y-52904761D01*
X173904761Y-52809523D01*
X173857142Y-52761904D01*
X173761904Y-52714285D01*
X173523809Y-52714285D01*
X173428571Y-52761904D01*
X173380952Y-52809523D01*
X173333333Y-52904761D01*
X173333333Y-53095237D01*
X173380952Y-53190475D01*
X173428571Y-53238094D01*
X173523809Y-53285713D01*
%TO.C,R5*%
X176452380Y-62353689D02*
X175976190Y-62687022D01*
X176452380Y-62925117D02*
X175452380Y-62925117D01*
X175452380Y-62544165D01*
X175500000Y-62448927D01*
X175547619Y-62401308D01*
X175642857Y-62353689D01*
X175785714Y-62353689D01*
X175880952Y-62401308D01*
X175928571Y-62448927D01*
X175976190Y-62544165D01*
X175976190Y-62925117D01*
X175452380Y-61489404D02*
X175452380Y-61965594D01*
X175928571Y-62013213D01*
X175880952Y-61965594D01*
X175833333Y-61870356D01*
X175833333Y-61632261D01*
X175880952Y-61537023D01*
X175928571Y-61489404D01*
X176023809Y-61441785D01*
X176261904Y-61441785D01*
X176357142Y-61489404D01*
X176404761Y-61537023D01*
X176452380Y-61632261D01*
X176452380Y-61870356D01*
X176404761Y-61965594D01*
X176357142Y-62013213D01*
%TO.C,J1*%
X181730953Y-71452380D02*
X181730953Y-72166666D01*
X181683334Y-72309523D01*
X181588096Y-72404761D01*
X181445239Y-72452380D01*
X181350001Y-72452380D01*
X182642857Y-72452380D02*
X182071429Y-72452380D01*
X182357143Y-72452380D02*
X182357143Y-71452380D01*
X182261905Y-71595238D01*
X182166667Y-71690476D01*
X182071429Y-71738095D01*
%TO.C,J4*%
X186707143Y-45002380D02*
X186707143Y-45716666D01*
X186659524Y-45859523D01*
X186564286Y-45954761D01*
X186421429Y-46002380D01*
X186326191Y-46002380D01*
X187523809Y-45335714D02*
X187523809Y-46002380D01*
X187285714Y-44954761D02*
X187047619Y-45669047D01*
X187666666Y-45669047D01*
%TO.C,R4*%
X154350000Y-68952380D02*
X154016667Y-68476190D01*
X153778572Y-68952380D02*
X153778572Y-67952380D01*
X154159524Y-67952380D01*
X154254762Y-68000000D01*
X154302381Y-68047619D01*
X154350000Y-68142857D01*
X154350000Y-68285714D01*
X154302381Y-68380952D01*
X154254762Y-68428571D01*
X154159524Y-68476190D01*
X153778572Y-68476190D01*
X155166666Y-68285714D02*
X155166666Y-68952380D01*
X154928571Y-67904761D02*
X154690476Y-68619047D01*
X155309523Y-68619047D01*
%TO.C,U1*%
X160002382Y-63652380D02*
X160002382Y-64461904D01*
X160050001Y-64557142D01*
X160097620Y-64604761D01*
X160192858Y-64652380D01*
X160383334Y-64652380D01*
X160478572Y-64604761D01*
X160526191Y-64557142D01*
X160573810Y-64461904D01*
X160573810Y-63652380D01*
X161485714Y-64652380D02*
X160914286Y-64652380D01*
X161200000Y-64652380D02*
X161200000Y-63652380D01*
X161104762Y-63795238D01*
X161009524Y-63890476D01*
X160914286Y-63938095D01*
%TO.C,C1*%
X159373810Y-62357142D02*
X159326191Y-62404761D01*
X159183334Y-62452380D01*
X159088096Y-62452380D01*
X158945239Y-62404761D01*
X158850001Y-62309523D01*
X158802382Y-62214285D01*
X158754763Y-62023809D01*
X158754763Y-61880952D01*
X158802382Y-61690476D01*
X158850001Y-61595238D01*
X158945239Y-61500000D01*
X159088096Y-61452380D01*
X159183334Y-61452380D01*
X159326191Y-61500000D01*
X159373810Y-61547619D01*
X160285714Y-62452380D02*
X159714286Y-62452380D01*
X160000000Y-62452380D02*
X160000000Y-61452380D01*
X159904762Y-61595238D01*
X159809524Y-61690476D01*
X159714286Y-61738095D01*
D11*
%TO.C,SW1*%
X164000000Y-80900000D02*
X168500000Y-80900000D01*
X162750000Y-76900000D02*
X162750000Y-78400000D01*
X168500000Y-74400000D02*
X164000000Y-74400000D01*
X169750000Y-78400000D02*
X169750000Y-76900000D01*
%TO.C,J8*%
X160645000Y-73330000D02*
X160645000Y-70670000D01*
X160645000Y-73330000D02*
X175945000Y-73330000D01*
X175945000Y-73330000D02*
X175945000Y-70670000D01*
X160645000Y-70670000D02*
X175945000Y-70670000D01*
X158045000Y-70670000D02*
X159375000Y-70670000D01*
X158045000Y-72000000D02*
X158045000Y-70670000D01*
%TO.C,JGND1*%
X169000694Y-43000000D02*
G75*
G03*
X169000694Y-43000000I-1800694J0D01*
G01*
%TO.C,J12V1*%
X163800694Y-43000000D02*
G75*
G03*
X163800694Y-43000000I-1800694J0D01*
G01*
%TO.C,J5V1*%
X174300694Y-43000000D02*
G75*
G03*
X174300694Y-43000000I-1800694J0D01*
G01*
%TO.C,U3*%
X163550000Y-53570000D02*
X163550000Y-55070000D01*
X163550000Y-55070000D02*
X163820000Y-55070000D01*
X163820000Y-55070000D02*
X163820000Y-57900000D01*
X170450000Y-53570000D02*
X170450000Y-55070000D01*
X170450000Y-55070000D02*
X170180000Y-55070000D01*
X170180000Y-55070000D02*
X170180000Y-56170000D01*
%TO.C,D8*%
X177500000Y-55750000D02*
X179500000Y-55750000D01*
X179500000Y-55750000D02*
X179500000Y-51850000D01*
X177500000Y-55750000D02*
X177500000Y-51850000D01*
%TO.C,D7*%
X172540000Y-58612500D02*
X172540000Y-61297500D01*
X172540000Y-61297500D02*
X174460000Y-61297500D01*
X174460000Y-61297500D02*
X174460000Y-58612500D01*
%TO.C,D6*%
X176960000Y-57140000D02*
X176960000Y-54455000D01*
X176960000Y-54455000D02*
X175040000Y-54455000D01*
X175040000Y-54455000D02*
X175040000Y-57140000D01*
%TO.C,D5*%
X158562500Y-67540000D02*
X155877500Y-67540000D01*
X155877500Y-67540000D02*
X155877500Y-69460000D01*
X155877500Y-69460000D02*
X158562500Y-69460000D01*
%TO.C,D4*%
X158562500Y-65040000D02*
X155877500Y-65040000D01*
X155877500Y-65040000D02*
X155877500Y-66960000D01*
X155877500Y-66960000D02*
X158562500Y-66960000D01*
%TO.C,D2*%
X177500000Y-64750000D02*
X179500000Y-64750000D01*
X179500000Y-64750000D02*
X179500000Y-60850000D01*
X177500000Y-64750000D02*
X177500000Y-60850000D01*
%TO.C,D3*%
X170250000Y-60500000D02*
X170250000Y-58500000D01*
X170250000Y-58500000D02*
X166350000Y-58500000D01*
X170250000Y-60500000D02*
X166350000Y-60500000D01*
%TO.C,D1*%
X160750000Y-58500000D02*
X160750000Y-60500000D01*
X160750000Y-60500000D02*
X164650000Y-60500000D01*
X160750000Y-58500000D02*
X164650000Y-58500000D01*
%TO.C,C2*%
X167288748Y-61090000D02*
X168711252Y-61090000D01*
X167288748Y-62910000D02*
X168711252Y-62910000D01*
%TO.C,J3*%
X183800694Y-43000000D02*
G75*
G03*
X183800694Y-43000000I-1800694J0D01*
G01*
%TO.C,J2*%
X180695000Y-56745000D02*
X180695000Y-61885000D01*
X180695000Y-56745000D02*
X183355000Y-56745000D01*
X180695000Y-61885000D02*
X183355000Y-61885000D01*
X182025000Y-54145000D02*
X183355000Y-54145000D01*
X183355000Y-54145000D02*
X183355000Y-55475000D01*
X183355000Y-56745000D02*
X183355000Y-61885000D01*
%TO.C,R3*%
X160835436Y-65265000D02*
X161289564Y-65265000D01*
X160835436Y-66735000D02*
X161289564Y-66735000D01*
%TO.C,U2*%
X175675000Y-47960000D02*
X178675000Y-47960000D01*
X177175000Y-45740000D02*
X178675000Y-45740000D01*
%TO.C,R6*%
X172765000Y-56314564D02*
X172765000Y-55860436D01*
X174235000Y-56314564D02*
X174235000Y-55860436D01*
%TO.C,R5*%
X176735000Y-59412936D02*
X176735000Y-59867064D01*
X175265000Y-59412936D02*
X175265000Y-59867064D01*
%TO.C,J1*%
X180670000Y-65770000D02*
X180670000Y-70910000D01*
X180670000Y-65770000D02*
X183330000Y-65770000D01*
X180670000Y-70910000D02*
X183330000Y-70910000D01*
X182000000Y-63170000D02*
X183330000Y-63170000D01*
X183330000Y-63170000D02*
X183330000Y-64500000D01*
X183330000Y-65770000D02*
X183330000Y-70910000D01*
%TO.C,J4*%
X188800694Y-43000000D02*
G75*
G03*
X188800694Y-43000000I-1800694J0D01*
G01*
%TO.C,R4*%
X160835436Y-67765000D02*
X161289564Y-67765000D01*
X160835436Y-69235000D02*
X161289564Y-69235000D01*
%TO.C,U1*%
X167000000Y-69060000D02*
X170450000Y-69060000D01*
X167000000Y-69060000D02*
X165050000Y-69060000D01*
X167000000Y-63940000D02*
X168950000Y-63940000D01*
X167000000Y-63940000D02*
X165050000Y-63940000D01*
%TO.C,C1*%
X163711252Y-62910000D02*
X162288748Y-62910000D01*
X163711252Y-61090000D02*
X162288748Y-61090000D01*
%TD*%
M02*
