M48
; DRILL file {KiCad (6.99.0-228-g2fdbc41b8f)} date Fri Jan 21 20:17:31 2022
; FORMAT={-:-/ absolute / inch / decimal}
; #@! TF.CreationDate,2022-01-21T20:17:31+01:00
; #@! TF.GenerationSoftware,Kicad,Pcbnew,(6.99.0-228-g2fdbc41b8f)
; #@! TF.FileFunction,Plated,1,2,PTH
FMAT,2
INCH
; #@! TA.AperFunction,Plated,PTH,ViaDrill
T1C0.0157
; #@! TA.AperFunction,Plated,PTH,ComponentDrill
T2C0.0394
; #@! TA.AperFunction,Plated,PTH,ComponentDrill
T3C0.0433
; #@! TA.AperFunction,Plated,PTH,ComponentDrill
T4C0.0591
; #@! TA.AperFunction,Plated,PTH,ComponentDrill
T5C0.1260
%
G90
G05
T1
X6.3898Y-2.5433
X6.5471Y-2.5945
X6.7657Y-2.0925
X6.7913Y-1.8465
X6.8425Y-1.8504
X6.8622Y-1.8976
X6.8819Y-1.7677
T2
X6.2746Y-2.8346
X6.3746Y-2.8346
X6.4746Y-2.8346
X6.5746Y-2.8346
X6.6746Y-2.8346
X6.7746Y-2.8346
X6.8746Y-2.8346
X7.1654Y-2.5394
X7.1654Y-2.6394
X7.1654Y-2.7394
X7.1663Y-2.1841
X7.1663Y-2.2841
X7.1663Y-2.3841
T3
X6.4173Y-2.9685
X6.4173Y-3.1457
X6.6732Y-2.9685
X6.6732Y-3.1457
T4
X6.378Y-1.6929
X6.5827Y-1.6929
X6.7913Y-1.6929
X7.1654Y-1.6929
X7.3622Y-1.6929
T5
X6.063Y-2.0079
X6.063Y-3.0512
X7.4213Y-2.0079
X7.4213Y-3.0512
T0
M30
