%TF.GenerationSoftware,KiCad,Pcbnew,(6.99.0-228-g2fdbc41b8f)*%
%TF.CreationDate,2022-01-21T20:17:48+01:00*%
%TF.ProjectId,igniter,69676e69-7465-4722-9e6b-696361645f70,rev?*%
%TF.SameCoordinates,Original*%
%TF.FileFunction,Copper,L2,Bot*%
%TF.FilePolarity,Positive*%
%FSLAX46Y46*%
G04 Gerber Fmt 4.6, Leading zero omitted, Abs format (unit mm)*
G04 Created by KiCad (PCBNEW (6.99.0-228-g2fdbc41b8f)) date 2022-01-21 20:17:48*
%MOMM*%
%LPD*%
G01*
G04 APERTURE LIST*
%TA.AperFunction,ComponentPad*%
%ADD10C,3.000000*%
%TD*%
%TA.AperFunction,ComponentPad*%
%ADD11R,2.000000X2.000000*%
%TD*%
%TA.AperFunction,ComponentPad*%
%ADD12O,2.000000X2.000000*%
%TD*%
%TA.AperFunction,ComponentPad*%
%ADD13C,5.600000*%
%TD*%
%TA.AperFunction,ComponentPad*%
%ADD14R,1.905000X2.000000*%
%TD*%
%TA.AperFunction,ComponentPad*%
%ADD15O,1.905000X2.000000*%
%TD*%
G04 APERTURE END LIST*
D10*
%TO.P,SGND1,1,Pin_1*%
%TO.N,GND*%
X132450000Y-62750000D03*
%TD*%
%TO.P,D12V1,1,Pin_1*%
%TO.N,Net-(D1-K)*%
X137500000Y-62750000D03*
%TD*%
D11*
%TO.P,D1,1,K*%
%TO.N,Net-(D1-K)*%
X135800000Y-54700000D03*
D12*
%TO.P,D1,2,A*%
%TO.N,GND*%
X140880000Y-54700000D03*
%TD*%
D13*
%TO.P,H2,1*%
%TO.N,N/C*%
X141700000Y-30100000D03*
%TD*%
%TO.P,H1,1*%
%TO.N,N/C*%
X123200000Y-30200000D03*
%TD*%
D10*
%TO.P,G1,1,Pin_1*%
%TO.N,Net-(G1-Pin_1)*%
X127350000Y-62700000D03*
%TD*%
D13*
%TO.P,H4,1*%
%TO.N,N/C*%
X141600000Y-66800000D03*
%TD*%
%TO.P,H3,1*%
%TO.N,N/C*%
X123300000Y-66700000D03*
%TD*%
D14*
%TO.P,Q1,1,G*%
%TO.N,Net-(G1-Pin_1)*%
X124000000Y-54700000D03*
D15*
%TO.P,Q1,2,D*%
%TO.N,Net-(D1-K)*%
X126540000Y-54700000D03*
%TO.P,Q1,3,S*%
%TO.N,GND*%
X129080000Y-54700000D03*
%TD*%
%TA.AperFunction,Conductor*%
%TO.N,GND*%
G36*
X139483194Y-27428002D02*
G01*
X139529687Y-27481658D01*
X139539791Y-27551932D01*
X139510297Y-27616512D01*
X139501486Y-27625699D01*
X139300559Y-27815043D01*
X139067819Y-28087546D01*
X139065900Y-28090358D01*
X139065897Y-28090363D01*
X138999604Y-28187546D01*
X138865871Y-28383591D01*
X138697077Y-28699714D01*
X138563411Y-29032218D01*
X138466437Y-29377213D01*
X138407290Y-29730663D01*
X138386661Y-30088434D01*
X138404792Y-30446340D01*
X138461470Y-30800195D01*
X138556033Y-31145859D01*
X138687374Y-31479288D01*
X138853957Y-31796582D01*
X138855858Y-31799411D01*
X138855864Y-31799421D01*
X138941119Y-31926292D01*
X139053834Y-32094029D01*
X139284665Y-32368150D01*
X139543751Y-32615738D01*
X139828061Y-32833897D01*
X139860056Y-32853350D01*
X140131355Y-33018303D01*
X140131360Y-33018306D01*
X140134270Y-33020075D01*
X140137358Y-33021521D01*
X140137357Y-33021521D01*
X140455710Y-33170649D01*
X140455720Y-33170653D01*
X140458794Y-33172093D01*
X140462012Y-33173195D01*
X140462015Y-33173196D01*
X140794615Y-33287071D01*
X140794623Y-33287073D01*
X140797838Y-33288174D01*
X141147435Y-33366959D01*
X141199728Y-33372917D01*
X141500114Y-33407142D01*
X141500122Y-33407142D01*
X141503497Y-33407527D01*
X141506901Y-33407545D01*
X141506904Y-33407545D01*
X141701227Y-33408562D01*
X141861857Y-33409403D01*
X141865243Y-33409053D01*
X141865245Y-33409053D01*
X142214932Y-33372917D01*
X142214941Y-33372916D01*
X142218324Y-33372566D01*
X142221657Y-33371852D01*
X142221660Y-33371851D01*
X142394186Y-33334864D01*
X142568727Y-33297446D01*
X142908968Y-33184922D01*
X143235066Y-33036311D01*
X143329052Y-32980506D01*
X143540262Y-32855099D01*
X143540267Y-32855096D01*
X143543207Y-32853350D01*
X143829786Y-32638180D01*
X144091451Y-32393319D01*
X144270475Y-32185184D01*
X144330061Y-32146582D01*
X144401057Y-32146323D01*
X144460923Y-32184489D01*
X144490651Y-32248961D01*
X144492000Y-32267348D01*
X144492000Y-64759300D01*
X144471998Y-64827421D01*
X144418342Y-64873914D01*
X144348068Y-64884018D01*
X144283488Y-64854524D01*
X144261664Y-64829940D01*
X144241102Y-64799570D01*
X144239190Y-64796746D01*
X144228639Y-64784304D01*
X144127765Y-64665358D01*
X144007403Y-64523432D01*
X143747454Y-64276750D01*
X143462384Y-64059585D01*
X143459472Y-64057828D01*
X143459467Y-64057825D01*
X143158443Y-63876236D01*
X143158437Y-63876233D01*
X143155528Y-63874478D01*
X142830475Y-63723593D01*
X142660751Y-63666145D01*
X142494255Y-63609789D01*
X142494250Y-63609788D01*
X142491028Y-63608697D01*
X142292681Y-63564724D01*
X142144493Y-63531871D01*
X142144487Y-63531870D01*
X142141158Y-63531132D01*
X142137769Y-63530758D01*
X142137764Y-63530757D01*
X141788338Y-63492180D01*
X141788333Y-63492180D01*
X141784957Y-63491807D01*
X141781558Y-63491801D01*
X141781557Y-63491801D01*
X141612080Y-63491505D01*
X141426592Y-63491182D01*
X141313413Y-63503277D01*
X141073639Y-63528901D01*
X141073631Y-63528902D01*
X141070256Y-63529263D01*
X140720117Y-63605606D01*
X140380271Y-63719317D01*
X140377178Y-63720739D01*
X140377177Y-63720740D01*
X140256520Y-63776236D01*
X140054694Y-63869066D01*
X140051760Y-63870822D01*
X140051758Y-63870823D01*
X139759095Y-64045978D01*
X139747193Y-64053101D01*
X139744467Y-64055163D01*
X139744465Y-64055164D01*
X139488506Y-64248745D01*
X139461367Y-64269270D01*
X139458882Y-64271612D01*
X139458877Y-64271616D01*
X139398294Y-64328707D01*
X139200559Y-64515043D01*
X138967819Y-64787546D01*
X138965900Y-64790358D01*
X138965897Y-64790363D01*
X138940618Y-64827421D01*
X138765871Y-65083591D01*
X138597077Y-65399714D01*
X138463411Y-65732218D01*
X138462491Y-65735492D01*
X138462489Y-65735497D01*
X138390424Y-65991878D01*
X138366437Y-66077213D01*
X138307290Y-66430663D01*
X138286661Y-66788434D01*
X138304792Y-67146340D01*
X138361470Y-67500195D01*
X138456033Y-67845859D01*
X138587374Y-68179288D01*
X138588957Y-68182303D01*
X138718529Y-68429101D01*
X138753957Y-68496582D01*
X138755858Y-68499411D01*
X138755864Y-68499421D01*
X138903294Y-68718818D01*
X138953834Y-68794029D01*
X139184665Y-69068150D01*
X139443751Y-69315738D01*
X139469968Y-69335855D01*
X139509303Y-69366038D01*
X139551170Y-69423376D01*
X139555392Y-69494247D01*
X139520628Y-69556150D01*
X139457915Y-69589431D01*
X139432599Y-69592000D01*
X125336211Y-69592000D01*
X125268090Y-69571998D01*
X125221597Y-69518342D01*
X125211493Y-69448068D01*
X125240987Y-69383488D01*
X125260558Y-69365240D01*
X125429786Y-69238180D01*
X125691451Y-68993319D01*
X125925140Y-68721630D01*
X126081888Y-68493560D01*
X126126190Y-68429101D01*
X126126195Y-68429094D01*
X126128120Y-68426292D01*
X126129732Y-68423298D01*
X126129737Y-68423290D01*
X126296395Y-68113772D01*
X126298017Y-68110760D01*
X126404294Y-67849029D01*
X126431562Y-67781877D01*
X126431564Y-67781872D01*
X126432842Y-67778724D01*
X126531020Y-67434070D01*
X126591401Y-67080828D01*
X126613278Y-66723131D01*
X126613359Y-66700000D01*
X126593979Y-66342159D01*
X126536066Y-65988505D01*
X126440297Y-65643173D01*
X126307793Y-65310205D01*
X126244947Y-65191510D01*
X126141702Y-64996513D01*
X126141698Y-64996506D01*
X126140103Y-64993494D01*
X125939190Y-64696746D01*
X125907290Y-64659130D01*
X125815654Y-64551077D01*
X125707403Y-64423432D01*
X125467838Y-64196094D01*
X125449921Y-64179091D01*
X125449920Y-64179090D01*
X125447454Y-64176750D01*
X125162384Y-63959585D01*
X125159472Y-63957828D01*
X125159467Y-63957825D01*
X124858443Y-63776236D01*
X124858437Y-63776233D01*
X124855528Y-63774478D01*
X124530475Y-63623593D01*
X124277760Y-63538054D01*
X124194255Y-63509789D01*
X124194250Y-63509788D01*
X124191028Y-63508697D01*
X123992681Y-63464724D01*
X123844493Y-63431871D01*
X123844487Y-63431870D01*
X123841158Y-63431132D01*
X123837769Y-63430758D01*
X123837764Y-63430757D01*
X123488338Y-63392180D01*
X123488333Y-63392180D01*
X123484957Y-63391807D01*
X123481558Y-63391801D01*
X123481557Y-63391801D01*
X123312080Y-63391505D01*
X123126592Y-63391182D01*
X123013413Y-63403277D01*
X122773639Y-63428901D01*
X122773631Y-63428902D01*
X122770256Y-63429263D01*
X122420117Y-63505606D01*
X122080271Y-63619317D01*
X122077178Y-63620739D01*
X122077177Y-63620740D01*
X122070974Y-63623593D01*
X121754694Y-63769066D01*
X121751760Y-63770822D01*
X121751758Y-63770823D01*
X121451556Y-63950490D01*
X121447193Y-63953101D01*
X121444467Y-63955163D01*
X121444465Y-63955164D01*
X121179179Y-64155799D01*
X121161367Y-64169270D01*
X121158882Y-64171612D01*
X121158877Y-64171616D01*
X121132902Y-64196094D01*
X120900559Y-64415043D01*
X120667819Y-64687546D01*
X120665900Y-64690358D01*
X120665897Y-64690363D01*
X120638088Y-64731130D01*
X120583177Y-64776133D01*
X120512652Y-64784304D01*
X120448905Y-64753050D01*
X120412175Y-64692293D01*
X120408000Y-64660126D01*
X120408000Y-62678918D01*
X125336917Y-62678918D01*
X125352682Y-62952320D01*
X125353507Y-62956525D01*
X125353508Y-62956533D01*
X125383917Y-63111526D01*
X125405405Y-63221053D01*
X125406792Y-63225103D01*
X125406793Y-63225108D01*
X125477203Y-63430757D01*
X125494112Y-63480144D01*
X125508473Y-63508697D01*
X125615119Y-63720740D01*
X125617160Y-63724799D01*
X125619586Y-63728328D01*
X125619589Y-63728334D01*
X125717520Y-63870823D01*
X125772274Y-63950490D01*
X125775161Y-63953663D01*
X125775162Y-63953664D01*
X125953692Y-64149867D01*
X125956582Y-64153043D01*
X126166675Y-64328707D01*
X126170316Y-64330991D01*
X126395024Y-64471951D01*
X126395028Y-64471953D01*
X126398664Y-64474234D01*
X126504345Y-64521951D01*
X126644345Y-64585164D01*
X126644349Y-64585166D01*
X126648257Y-64586930D01*
X126652377Y-64588150D01*
X126652376Y-64588150D01*
X126906723Y-64663491D01*
X126906727Y-64663492D01*
X126910836Y-64664709D01*
X126915070Y-64665357D01*
X126915075Y-64665358D01*
X127177298Y-64705483D01*
X127177300Y-64705483D01*
X127181540Y-64706132D01*
X127320912Y-64708322D01*
X127451071Y-64710367D01*
X127451077Y-64710367D01*
X127455362Y-64710434D01*
X127727235Y-64677534D01*
X127992127Y-64608041D01*
X127996087Y-64606401D01*
X127996092Y-64606399D01*
X128129650Y-64551077D01*
X128245136Y-64503241D01*
X128481582Y-64365073D01*
X128697089Y-64196094D01*
X128723084Y-64169270D01*
X128837360Y-64051346D01*
X128887669Y-63999431D01*
X128890202Y-63995983D01*
X128890206Y-63995978D01*
X129047257Y-63782178D01*
X129049795Y-63778723D01*
X129054006Y-63770968D01*
X129178418Y-63541830D01*
X129178419Y-63541828D01*
X129180468Y-63538054D01*
X129235966Y-63391182D01*
X129275751Y-63285895D01*
X129275752Y-63285891D01*
X129277269Y-63281877D01*
X129338407Y-63014933D01*
X129339916Y-62998032D01*
X129362531Y-62744627D01*
X129362531Y-62744625D01*
X129362751Y-62742161D01*
X129362890Y-62728918D01*
X135486917Y-62728918D01*
X135502682Y-63002320D01*
X135503507Y-63006525D01*
X135503508Y-63006533D01*
X135505977Y-63019117D01*
X135555405Y-63271053D01*
X135556792Y-63275103D01*
X135556793Y-63275108D01*
X135636082Y-63506690D01*
X135644112Y-63530144D01*
X135691112Y-63623593D01*
X135764277Y-63769066D01*
X135767160Y-63774799D01*
X135769586Y-63778328D01*
X135769589Y-63778334D01*
X135895578Y-63961647D01*
X135922274Y-64000490D01*
X135925161Y-64003663D01*
X135925162Y-64003664D01*
X136073972Y-64167205D01*
X136106582Y-64203043D01*
X136316675Y-64378707D01*
X136320316Y-64380991D01*
X136545024Y-64521951D01*
X136545028Y-64521953D01*
X136548664Y-64524234D01*
X136616544Y-64554883D01*
X136794345Y-64635164D01*
X136794349Y-64635166D01*
X136798257Y-64636930D01*
X136802377Y-64638150D01*
X136802376Y-64638150D01*
X137056723Y-64713491D01*
X137056727Y-64713492D01*
X137060836Y-64714709D01*
X137065070Y-64715357D01*
X137065075Y-64715358D01*
X137327298Y-64755483D01*
X137327300Y-64755483D01*
X137331540Y-64756132D01*
X137470912Y-64758322D01*
X137601071Y-64760367D01*
X137601077Y-64760367D01*
X137605362Y-64760434D01*
X137877235Y-64727534D01*
X138142127Y-64658041D01*
X138146087Y-64656401D01*
X138146092Y-64656399D01*
X138310858Y-64588150D01*
X138395136Y-64553241D01*
X138612823Y-64426035D01*
X138627879Y-64417237D01*
X138627880Y-64417236D01*
X138631582Y-64415073D01*
X138847089Y-64246094D01*
X138888809Y-64203043D01*
X139027829Y-64059585D01*
X139037669Y-64049431D01*
X139040202Y-64045983D01*
X139040206Y-64045978D01*
X139197257Y-63832178D01*
X139199795Y-63828723D01*
X139228989Y-63774955D01*
X139328418Y-63591830D01*
X139328419Y-63591828D01*
X139330468Y-63588054D01*
X139389764Y-63431132D01*
X139425751Y-63335895D01*
X139425752Y-63335891D01*
X139427269Y-63331877D01*
X139488407Y-63064933D01*
X139492870Y-63014933D01*
X139512531Y-62794627D01*
X139512531Y-62794625D01*
X139512751Y-62792161D01*
X139513193Y-62750000D01*
X139509954Y-62702484D01*
X139494859Y-62481055D01*
X139494858Y-62481049D01*
X139494567Y-62476778D01*
X139484213Y-62426778D01*
X139439901Y-62212809D01*
X139439032Y-62208612D01*
X139347617Y-61950465D01*
X139222013Y-61707112D01*
X139212040Y-61692921D01*
X139067008Y-61486562D01*
X139064545Y-61483057D01*
X138878125Y-61282445D01*
X138874810Y-61279731D01*
X138874806Y-61279728D01*
X138669523Y-61111706D01*
X138666205Y-61108990D01*
X138432704Y-60965901D01*
X138428768Y-60964173D01*
X138185873Y-60857549D01*
X138185869Y-60857548D01*
X138181945Y-60855825D01*
X137918566Y-60780800D01*
X137914324Y-60780196D01*
X137914318Y-60780195D01*
X137713834Y-60751662D01*
X137647443Y-60742213D01*
X137503589Y-60741460D01*
X137377877Y-60740802D01*
X137377871Y-60740802D01*
X137373591Y-60740780D01*
X137369347Y-60741339D01*
X137369343Y-60741339D01*
X137250302Y-60757011D01*
X137102078Y-60776525D01*
X137097938Y-60777658D01*
X137097936Y-60777658D01*
X137025008Y-60797609D01*
X136837928Y-60848788D01*
X136833980Y-60850472D01*
X136589982Y-60954546D01*
X136589978Y-60954548D01*
X136586030Y-60956232D01*
X136566125Y-60968145D01*
X136354725Y-61094664D01*
X136354721Y-61094667D01*
X136351043Y-61096868D01*
X136137318Y-61268094D01*
X136120717Y-61285588D01*
X135983755Y-61429916D01*
X135948808Y-61466742D01*
X135789002Y-61689136D01*
X135660857Y-61931161D01*
X135659385Y-61935184D01*
X135659383Y-61935188D01*
X135577621Y-62158612D01*
X135566743Y-62188337D01*
X135508404Y-62455907D01*
X135486917Y-62728918D01*
X129362890Y-62728918D01*
X129363193Y-62700000D01*
X129361465Y-62674648D01*
X129344859Y-62431055D01*
X129344858Y-62431049D01*
X129344567Y-62426778D01*
X129289032Y-62158612D01*
X129197617Y-61900465D01*
X129072013Y-61657112D01*
X129062040Y-61642921D01*
X128917008Y-61436562D01*
X128914545Y-61433057D01*
X128844466Y-61357643D01*
X128731046Y-61235588D01*
X128731043Y-61235585D01*
X128728125Y-61232445D01*
X128724810Y-61229731D01*
X128724806Y-61229728D01*
X128519523Y-61061706D01*
X128516205Y-61058990D01*
X128282704Y-60915901D01*
X128278768Y-60914173D01*
X128035873Y-60807549D01*
X128035869Y-60807548D01*
X128031945Y-60805825D01*
X127768566Y-60730800D01*
X127764324Y-60730196D01*
X127764318Y-60730195D01*
X127563834Y-60701662D01*
X127497443Y-60692213D01*
X127353589Y-60691460D01*
X127227877Y-60690802D01*
X127227871Y-60690802D01*
X127223591Y-60690780D01*
X127219347Y-60691339D01*
X127219343Y-60691339D01*
X127100302Y-60707011D01*
X126952078Y-60726525D01*
X126947938Y-60727658D01*
X126947936Y-60727658D01*
X126894732Y-60742213D01*
X126687928Y-60798788D01*
X126683980Y-60800472D01*
X126439982Y-60904546D01*
X126439978Y-60904548D01*
X126436030Y-60906232D01*
X126416125Y-60918145D01*
X126204725Y-61044664D01*
X126204721Y-61044667D01*
X126201043Y-61046868D01*
X125987318Y-61218094D01*
X125798808Y-61416742D01*
X125639002Y-61639136D01*
X125510857Y-61881161D01*
X125509385Y-61885184D01*
X125509383Y-61885188D01*
X125486889Y-61946656D01*
X125416743Y-62138337D01*
X125358404Y-62405907D01*
X125336917Y-62678918D01*
X120408000Y-62678918D01*
X120408000Y-55748134D01*
X122539000Y-55748134D01*
X122545755Y-55810316D01*
X122596885Y-55946705D01*
X122684239Y-56063261D01*
X122800795Y-56150615D01*
X122937184Y-56201745D01*
X122999366Y-56208500D01*
X125000634Y-56208500D01*
X125062816Y-56201745D01*
X125199205Y-56150615D01*
X125315761Y-56063261D01*
X125403115Y-55946705D01*
X125410573Y-55926811D01*
X125453213Y-55870047D01*
X125519774Y-55845346D01*
X125589123Y-55860553D01*
X125606647Y-55872158D01*
X125724670Y-55965367D01*
X125724675Y-55965370D01*
X125728724Y-55968568D01*
X125733240Y-55971061D01*
X125733243Y-55971063D01*
X125934526Y-56082177D01*
X125934530Y-56082179D01*
X125939050Y-56084674D01*
X125943919Y-56086398D01*
X125943923Y-56086400D01*
X126160640Y-56163144D01*
X126160644Y-56163145D01*
X126165515Y-56164870D01*
X126170608Y-56165777D01*
X126170611Y-56165778D01*
X126396948Y-56206095D01*
X126396954Y-56206096D01*
X126402037Y-56207001D01*
X126489400Y-56208068D01*
X126637093Y-56209873D01*
X126637095Y-56209873D01*
X126642263Y-56209936D01*
X126879744Y-56173596D01*
X126991997Y-56136906D01*
X127103183Y-56100566D01*
X127103189Y-56100563D01*
X127108101Y-56098958D01*
X127112687Y-56096571D01*
X127112691Y-56096569D01*
X127316607Y-55990416D01*
X127321200Y-55988025D01*
X127513320Y-55843777D01*
X127604719Y-55748134D01*
X134291500Y-55748134D01*
X134298255Y-55810316D01*
X134349385Y-55946705D01*
X134436739Y-56063261D01*
X134553295Y-56150615D01*
X134689684Y-56201745D01*
X134751866Y-56208500D01*
X136848134Y-56208500D01*
X136910316Y-56201745D01*
X137046705Y-56150615D01*
X137163261Y-56063261D01*
X137250615Y-55946705D01*
X137301745Y-55810316D01*
X137308500Y-55748134D01*
X137308500Y-53651866D01*
X137301745Y-53589684D01*
X137250615Y-53453295D01*
X137163261Y-53336739D01*
X137046705Y-53249385D01*
X136910316Y-53198255D01*
X136848134Y-53191500D01*
X134751866Y-53191500D01*
X134689684Y-53198255D01*
X134553295Y-53249385D01*
X134436739Y-53336739D01*
X134349385Y-53453295D01*
X134298255Y-53589684D01*
X134291500Y-53651866D01*
X134291500Y-55748134D01*
X127604719Y-55748134D01*
X127679301Y-55670088D01*
X127814686Y-55471622D01*
X127915837Y-55253710D01*
X127980040Y-55022202D01*
X128001000Y-54826072D01*
X128001000Y-54591598D01*
X127986322Y-54413063D01*
X127927794Y-54180056D01*
X127831997Y-53959737D01*
X127701502Y-53758023D01*
X127539814Y-53580330D01*
X127462983Y-53519653D01*
X127355330Y-53434633D01*
X127355325Y-53434630D01*
X127351276Y-53431432D01*
X127346760Y-53428939D01*
X127346757Y-53428937D01*
X127145474Y-53317823D01*
X127145470Y-53317821D01*
X127140950Y-53315326D01*
X127136081Y-53313602D01*
X127136077Y-53313600D01*
X126919360Y-53236856D01*
X126919356Y-53236855D01*
X126914485Y-53235130D01*
X126909392Y-53234223D01*
X126909389Y-53234222D01*
X126683052Y-53193905D01*
X126683046Y-53193904D01*
X126677963Y-53192999D01*
X126585474Y-53191869D01*
X126442907Y-53190127D01*
X126442905Y-53190127D01*
X126437737Y-53190064D01*
X126200256Y-53226404D01*
X126088003Y-53263094D01*
X125976817Y-53299434D01*
X125976811Y-53299437D01*
X125971899Y-53301042D01*
X125967313Y-53303429D01*
X125967309Y-53303431D01*
X125763393Y-53409584D01*
X125758800Y-53411975D01*
X125603717Y-53528415D01*
X125537235Y-53553320D01*
X125467839Y-53538328D01*
X125417565Y-53488198D01*
X125410085Y-53471885D01*
X125406269Y-53461707D01*
X125406267Y-53461703D01*
X125403115Y-53453295D01*
X125315761Y-53336739D01*
X125199205Y-53249385D01*
X125062816Y-53198255D01*
X125000634Y-53191500D01*
X122999366Y-53191500D01*
X122937184Y-53198255D01*
X122800795Y-53249385D01*
X122684239Y-53336739D01*
X122596885Y-53453295D01*
X122545755Y-53589684D01*
X122539000Y-53651866D01*
X122539000Y-55748134D01*
X120408000Y-55748134D01*
X120408000Y-38040000D01*
X124276654Y-38040000D01*
X124296017Y-38335426D01*
X124353776Y-38625797D01*
X124448941Y-38906145D01*
X124579885Y-39171673D01*
X124744367Y-39417838D01*
X124747081Y-39420932D01*
X124747085Y-39420938D01*
X124936864Y-39637338D01*
X124939573Y-39640427D01*
X124942662Y-39643136D01*
X125159062Y-39832915D01*
X125159068Y-39832919D01*
X125162162Y-39835633D01*
X125165588Y-39837922D01*
X125165593Y-39837926D01*
X125349405Y-39960744D01*
X125408327Y-40000115D01*
X125412026Y-40001939D01*
X125412031Y-40001942D01*
X125548313Y-40069148D01*
X125673855Y-40131059D01*
X125677760Y-40132384D01*
X125677761Y-40132385D01*
X125950290Y-40224896D01*
X125950294Y-40224897D01*
X125954203Y-40226224D01*
X125958247Y-40227028D01*
X125958253Y-40227030D01*
X126240535Y-40283180D01*
X126240541Y-40283181D01*
X126244574Y-40283983D01*
X126248679Y-40284252D01*
X126248686Y-40284253D01*
X126535881Y-40303076D01*
X126540000Y-40303346D01*
X126544119Y-40303076D01*
X126831314Y-40284253D01*
X126831321Y-40284252D01*
X126835426Y-40283983D01*
X126839459Y-40283181D01*
X126839465Y-40283180D01*
X127121747Y-40227030D01*
X127121753Y-40227028D01*
X127125797Y-40226224D01*
X127129706Y-40224897D01*
X127129710Y-40224896D01*
X127402239Y-40132385D01*
X127402240Y-40132384D01*
X127406145Y-40131059D01*
X127531687Y-40069148D01*
X127667969Y-40001942D01*
X127667974Y-40001939D01*
X127671673Y-40000115D01*
X127730595Y-39960744D01*
X127914407Y-39837926D01*
X127914412Y-39837922D01*
X127917838Y-39835633D01*
X127920932Y-39832919D01*
X127920938Y-39832915D01*
X128137338Y-39643136D01*
X128140427Y-39640427D01*
X128143136Y-39637338D01*
X128332915Y-39420938D01*
X128332919Y-39420932D01*
X128335633Y-39417838D01*
X128500115Y-39171673D01*
X128631059Y-38906145D01*
X128726224Y-38625797D01*
X128783983Y-38335426D01*
X128803346Y-38040000D01*
X136076654Y-38040000D01*
X136096017Y-38335426D01*
X136153776Y-38625797D01*
X136248941Y-38906145D01*
X136379885Y-39171673D01*
X136544367Y-39417838D01*
X136547081Y-39420932D01*
X136547085Y-39420938D01*
X136736864Y-39637338D01*
X136739573Y-39640427D01*
X136742662Y-39643136D01*
X136959062Y-39832915D01*
X136959068Y-39832919D01*
X136962162Y-39835633D01*
X136965588Y-39837922D01*
X136965593Y-39837926D01*
X137149405Y-39960744D01*
X137208327Y-40000115D01*
X137212026Y-40001939D01*
X137212031Y-40001942D01*
X137348313Y-40069148D01*
X137473855Y-40131059D01*
X137477760Y-40132384D01*
X137477761Y-40132385D01*
X137750290Y-40224896D01*
X137750294Y-40224897D01*
X137754203Y-40226224D01*
X137758247Y-40227028D01*
X137758253Y-40227030D01*
X138040535Y-40283180D01*
X138040541Y-40283181D01*
X138044574Y-40283983D01*
X138048679Y-40284252D01*
X138048686Y-40284253D01*
X138335881Y-40303076D01*
X138340000Y-40303346D01*
X138344119Y-40303076D01*
X138631314Y-40284253D01*
X138631321Y-40284252D01*
X138635426Y-40283983D01*
X138639459Y-40283181D01*
X138639465Y-40283180D01*
X138921747Y-40227030D01*
X138921753Y-40227028D01*
X138925797Y-40226224D01*
X138929706Y-40224897D01*
X138929710Y-40224896D01*
X139202239Y-40132385D01*
X139202240Y-40132384D01*
X139206145Y-40131059D01*
X139331687Y-40069148D01*
X139467969Y-40001942D01*
X139467974Y-40001939D01*
X139471673Y-40000115D01*
X139530595Y-39960744D01*
X139714407Y-39837926D01*
X139714412Y-39837922D01*
X139717838Y-39835633D01*
X139720932Y-39832919D01*
X139720938Y-39832915D01*
X139937338Y-39643136D01*
X139940427Y-39640427D01*
X139943136Y-39637338D01*
X140132915Y-39420938D01*
X140132919Y-39420932D01*
X140135633Y-39417838D01*
X140300115Y-39171673D01*
X140431059Y-38906145D01*
X140526224Y-38625797D01*
X140583983Y-38335426D01*
X140603346Y-38040000D01*
X140583983Y-37744574D01*
X140526224Y-37454203D01*
X140431059Y-37173855D01*
X140300115Y-36908327D01*
X140135633Y-36662162D01*
X140132919Y-36659068D01*
X140132915Y-36659062D01*
X139943136Y-36442662D01*
X139940427Y-36439573D01*
X139937338Y-36436864D01*
X139720938Y-36247085D01*
X139720932Y-36247081D01*
X139717838Y-36244367D01*
X139714412Y-36242078D01*
X139714407Y-36242074D01*
X139475106Y-36082179D01*
X139471673Y-36079885D01*
X139467974Y-36078061D01*
X139467969Y-36078058D01*
X139331687Y-36010852D01*
X139206145Y-35948941D01*
X139202239Y-35947615D01*
X138929710Y-35855104D01*
X138929706Y-35855103D01*
X138925797Y-35853776D01*
X138921753Y-35852972D01*
X138921747Y-35852970D01*
X138639465Y-35796820D01*
X138639459Y-35796819D01*
X138635426Y-35796017D01*
X138631321Y-35795748D01*
X138631314Y-35795747D01*
X138344119Y-35776924D01*
X138340000Y-35776654D01*
X138335881Y-35776924D01*
X138048686Y-35795747D01*
X138048679Y-35795748D01*
X138044574Y-35796017D01*
X138040541Y-35796819D01*
X138040535Y-35796820D01*
X137758253Y-35852970D01*
X137758247Y-35852972D01*
X137754203Y-35853776D01*
X137750294Y-35855103D01*
X137750290Y-35855104D01*
X137477761Y-35947615D01*
X137473855Y-35948941D01*
X137348313Y-36010852D01*
X137212031Y-36078058D01*
X137212026Y-36078061D01*
X137208327Y-36079885D01*
X137204894Y-36082179D01*
X136965593Y-36242074D01*
X136965588Y-36242078D01*
X136962162Y-36244367D01*
X136959068Y-36247081D01*
X136959062Y-36247085D01*
X136742662Y-36436864D01*
X136739573Y-36439573D01*
X136736864Y-36442662D01*
X136547085Y-36659062D01*
X136547081Y-36659068D01*
X136544367Y-36662162D01*
X136379885Y-36908327D01*
X136248941Y-37173855D01*
X136153776Y-37454203D01*
X136096017Y-37744574D01*
X136076654Y-38040000D01*
X128803346Y-38040000D01*
X128783983Y-37744574D01*
X128726224Y-37454203D01*
X128631059Y-37173855D01*
X128500115Y-36908327D01*
X128335633Y-36662162D01*
X128332919Y-36659068D01*
X128332915Y-36659062D01*
X128143136Y-36442662D01*
X128140427Y-36439573D01*
X128137338Y-36436864D01*
X127920938Y-36247085D01*
X127920932Y-36247081D01*
X127917838Y-36244367D01*
X127914412Y-36242078D01*
X127914407Y-36242074D01*
X127675106Y-36082179D01*
X127671673Y-36079885D01*
X127667974Y-36078061D01*
X127667969Y-36078058D01*
X127531687Y-36010852D01*
X127406145Y-35948941D01*
X127402239Y-35947615D01*
X127129710Y-35855104D01*
X127129706Y-35855103D01*
X127125797Y-35853776D01*
X127121753Y-35852972D01*
X127121747Y-35852970D01*
X126839465Y-35796820D01*
X126839459Y-35796819D01*
X126835426Y-35796017D01*
X126831321Y-35795748D01*
X126831314Y-35795747D01*
X126544119Y-35776924D01*
X126540000Y-35776654D01*
X126535881Y-35776924D01*
X126248686Y-35795747D01*
X126248679Y-35795748D01*
X126244574Y-35796017D01*
X126240541Y-35796819D01*
X126240535Y-35796820D01*
X125958253Y-35852970D01*
X125958247Y-35852972D01*
X125954203Y-35853776D01*
X125950294Y-35855103D01*
X125950290Y-35855104D01*
X125677761Y-35947615D01*
X125673855Y-35948941D01*
X125548313Y-36010852D01*
X125412031Y-36078058D01*
X125412026Y-36078061D01*
X125408327Y-36079885D01*
X125404894Y-36082179D01*
X125165593Y-36242074D01*
X125165588Y-36242078D01*
X125162162Y-36244367D01*
X125159068Y-36247081D01*
X125159062Y-36247085D01*
X124942662Y-36436864D01*
X124939573Y-36439573D01*
X124936864Y-36442662D01*
X124747085Y-36659062D01*
X124747081Y-36659068D01*
X124744367Y-36662162D01*
X124579885Y-36908327D01*
X124448941Y-37173855D01*
X124353776Y-37454203D01*
X124296017Y-37744574D01*
X124276654Y-38040000D01*
X120408000Y-38040000D01*
X120408000Y-32366090D01*
X120428002Y-32297969D01*
X120481658Y-32251476D01*
X120551932Y-32241372D01*
X120616512Y-32270866D01*
X120630380Y-32284931D01*
X120782464Y-32465537D01*
X120782470Y-32465544D01*
X120784665Y-32468150D01*
X121043751Y-32715738D01*
X121328061Y-32933897D01*
X121360056Y-32953350D01*
X121631355Y-33118303D01*
X121631360Y-33118306D01*
X121634270Y-33120075D01*
X121637358Y-33121521D01*
X121637357Y-33121521D01*
X121955710Y-33270649D01*
X121955720Y-33270653D01*
X121958794Y-33272093D01*
X121962012Y-33273195D01*
X121962015Y-33273196D01*
X122294615Y-33387071D01*
X122294623Y-33387073D01*
X122297838Y-33388174D01*
X122647435Y-33466959D01*
X122699728Y-33472917D01*
X123000114Y-33507142D01*
X123000122Y-33507142D01*
X123003497Y-33507527D01*
X123006901Y-33507545D01*
X123006904Y-33507545D01*
X123201227Y-33508562D01*
X123361857Y-33509403D01*
X123365243Y-33509053D01*
X123365245Y-33509053D01*
X123714932Y-33472917D01*
X123714941Y-33472916D01*
X123718324Y-33472566D01*
X123721657Y-33471852D01*
X123721660Y-33471851D01*
X123894186Y-33434864D01*
X124068727Y-33397446D01*
X124408968Y-33284922D01*
X124735066Y-33136311D01*
X124928394Y-33021521D01*
X125040262Y-32955099D01*
X125040267Y-32955096D01*
X125043207Y-32953350D01*
X125329786Y-32738180D01*
X125591451Y-32493319D01*
X125825140Y-32221630D01*
X125931750Y-32066512D01*
X126026190Y-31929101D01*
X126026195Y-31929094D01*
X126028120Y-31926292D01*
X126029732Y-31923298D01*
X126029737Y-31923290D01*
X126196395Y-31613772D01*
X126198017Y-31610760D01*
X126332842Y-31278724D01*
X126431020Y-30934070D01*
X126491401Y-30580828D01*
X126499627Y-30446340D01*
X126513168Y-30224928D01*
X126513278Y-30223131D01*
X126513359Y-30200000D01*
X126493979Y-29842159D01*
X126436066Y-29488505D01*
X126340297Y-29143173D01*
X126207793Y-28810205D01*
X126147701Y-28696711D01*
X126041702Y-28496513D01*
X126041698Y-28496506D01*
X126040103Y-28493494D01*
X125839190Y-28196746D01*
X125802746Y-28153772D01*
X125721754Y-28058270D01*
X125607403Y-27923432D01*
X125347454Y-27676750D01*
X125344750Y-27674690D01*
X125344744Y-27674685D01*
X125291639Y-27634230D01*
X125249571Y-27577039D01*
X125245102Y-27506183D01*
X125279650Y-27444159D01*
X125342246Y-27410659D01*
X125367993Y-27408000D01*
X139415073Y-27408000D01*
X139483194Y-27428002D01*
G37*
%TD.AperFunction*%
%TD*%
M02*
