%TF.GenerationSoftware,KiCad,Pcbnew,(6.99.0-228-g2fdbc41b8f)*%
%TF.CreationDate,2022-01-21T20:17:48+01:00*%
%TF.ProjectId,igniter,69676e69-7465-4722-9e6b-696361645f70,rev?*%
%TF.SameCoordinates,Original*%
%TF.FileFunction,Legend,Top*%
%TF.FilePolarity,Positive*%
%FSLAX46Y46*%
G04 Gerber Fmt 4.6, Leading zero omitted, Abs format (unit mm)*
G04 Created by KiCad (PCBNEW (6.99.0-228-g2fdbc41b8f)) date 2022-01-21 20:17:48*
%MOMM*%
%LPD*%
G01*
G04 APERTURE LIST*
%ADD10C,0.150000*%
%ADD11C,0.120000*%
G04 APERTURE END LIST*
D10*
%TO.C,SGND1*%
X130289288Y-60154761D02*
X130432145Y-60202380D01*
X130670240Y-60202380D01*
X130765478Y-60154761D01*
X130813097Y-60107142D01*
X130860716Y-60011904D01*
X130860716Y-59916666D01*
X130813097Y-59821428D01*
X130765478Y-59773809D01*
X130670240Y-59726190D01*
X130479764Y-59678571D01*
X130384526Y-59630952D01*
X130336907Y-59583333D01*
X130289288Y-59488095D01*
X130289288Y-59392857D01*
X130336907Y-59297619D01*
X130384526Y-59250000D01*
X130479764Y-59202380D01*
X130717859Y-59202380D01*
X130860716Y-59250000D01*
X131772620Y-59250000D02*
X131677382Y-59202380D01*
X131534525Y-59202380D01*
X131391668Y-59250000D01*
X131296430Y-59345238D01*
X131248811Y-59440476D01*
X131201192Y-59630952D01*
X131201192Y-59773809D01*
X131248811Y-59964285D01*
X131296430Y-60059523D01*
X131391668Y-60154761D01*
X131534525Y-60202380D01*
X131629763Y-60202380D01*
X131772620Y-60154761D01*
X131820239Y-60107142D01*
X131820239Y-59773809D01*
X131629763Y-59773809D01*
X132208334Y-60202380D02*
X132208334Y-59202380D01*
X132779762Y-60202380D01*
X132779762Y-59202380D01*
X133167857Y-60202380D02*
X133167857Y-59202380D01*
X133405952Y-59202380D01*
X133548809Y-59250000D01*
X133644047Y-59345238D01*
X133691666Y-59440476D01*
X133739285Y-59630952D01*
X133739285Y-59773809D01*
X133691666Y-59964285D01*
X133644047Y-60059523D01*
X133548809Y-60154761D01*
X133405952Y-60202380D01*
X133167857Y-60202380D01*
X134651189Y-60202380D02*
X134079761Y-60202380D01*
X134365475Y-60202380D02*
X134365475Y-59202380D01*
X134270237Y-59345238D01*
X134174999Y-59440476D01*
X134079761Y-59488095D01*
%TO.C,D12V1*%
X135434526Y-60202380D02*
X135434526Y-59202380D01*
X135672621Y-59202380D01*
X135815478Y-59250000D01*
X135910716Y-59345238D01*
X135958335Y-59440476D01*
X136005954Y-59630952D01*
X136005954Y-59773809D01*
X135958335Y-59964285D01*
X135910716Y-60059523D01*
X135815478Y-60154761D01*
X135672621Y-60202380D01*
X135434526Y-60202380D01*
X136917858Y-60202380D02*
X136346430Y-60202380D01*
X136632144Y-60202380D02*
X136632144Y-59202380D01*
X136536906Y-59345238D01*
X136441668Y-59440476D01*
X136346430Y-59488095D01*
X137258334Y-59297619D02*
X137305953Y-59250000D01*
X137401191Y-59202380D01*
X137639286Y-59202380D01*
X137734524Y-59250000D01*
X137782143Y-59297619D01*
X137829762Y-59392857D01*
X137829762Y-59488095D01*
X137782143Y-59630952D01*
X137210715Y-60202380D01*
X137829762Y-60202380D01*
X138075000Y-59202380D02*
X138408333Y-60202380D01*
X138741666Y-59202380D01*
X139653570Y-60202380D02*
X139082142Y-60202380D01*
X139367856Y-60202380D02*
X139367856Y-59202380D01*
X139272618Y-59345238D01*
X139177380Y-59440476D01*
X139082142Y-59488095D01*
%TO.C,D1*%
X137642382Y-34572380D02*
X137642382Y-33572380D01*
X137880477Y-33572380D01*
X138023334Y-33620000D01*
X138118572Y-33715238D01*
X138166191Y-33810476D01*
X138213810Y-34000952D01*
X138213810Y-34143809D01*
X138166191Y-34334285D01*
X138118572Y-34429523D01*
X138023334Y-34524761D01*
X137880477Y-34572380D01*
X137642382Y-34572380D01*
X139125714Y-34572380D02*
X138554286Y-34572380D01*
X138840000Y-34572380D02*
X138840000Y-33572380D01*
X138744762Y-33715238D01*
X138649524Y-33810476D01*
X138554286Y-33858095D01*
%TO.C,H2*%
X136802382Y-30552380D02*
X136802382Y-29552380D01*
X136802382Y-30028571D02*
X137373810Y-30028571D01*
X137373810Y-30552380D02*
X137373810Y-29552380D01*
X137714286Y-29647619D02*
X137761905Y-29600000D01*
X137857143Y-29552380D01*
X138095238Y-29552380D01*
X138190476Y-29600000D01*
X138238095Y-29647619D01*
X138285714Y-29742857D01*
X138285714Y-29838095D01*
X138238095Y-29980952D01*
X137666667Y-30552380D01*
X138285714Y-30552380D01*
%TO.C,H1*%
X126602382Y-30652380D02*
X126602382Y-29652380D01*
X126602382Y-30128571D02*
X127173810Y-30128571D01*
X127173810Y-30652380D02*
X127173810Y-29652380D01*
X128085714Y-30652380D02*
X127514286Y-30652380D01*
X127800000Y-30652380D02*
X127800000Y-29652380D01*
X127704762Y-29795238D01*
X127609524Y-29890476D01*
X127514286Y-29938095D01*
%TO.C,G1*%
X127176191Y-59250000D02*
X127080953Y-59202380D01*
X126938096Y-59202380D01*
X126795239Y-59250000D01*
X126700001Y-59345238D01*
X126652382Y-59440476D01*
X126604763Y-59630952D01*
X126604763Y-59773809D01*
X126652382Y-59964285D01*
X126700001Y-60059523D01*
X126795239Y-60154761D01*
X126938096Y-60202380D01*
X127033334Y-60202380D01*
X127176191Y-60154761D01*
X127223810Y-60107142D01*
X127223810Y-59773809D01*
X127033334Y-59773809D01*
X128135714Y-60202380D02*
X127564286Y-60202380D01*
X127850000Y-60202380D02*
X127850000Y-59202380D01*
X127754762Y-59345238D01*
X127659524Y-59440476D01*
X127564286Y-59488095D01*
%TO.C,H4*%
X137378572Y-69552380D02*
X137378572Y-68552380D01*
X137378572Y-69028571D02*
X137950000Y-69028571D01*
X137950000Y-69552380D02*
X137950000Y-68552380D01*
X138766666Y-68885714D02*
X138766666Y-69552380D01*
X138528571Y-68504761D02*
X138290476Y-69219047D01*
X138909523Y-69219047D01*
%TO.C,H3*%
X126002382Y-69552380D02*
X126002382Y-68552380D01*
X126002382Y-69028571D02*
X126573810Y-69028571D01*
X126573810Y-69552380D02*
X126573810Y-68552380D01*
X126866667Y-68552380D02*
X127485714Y-68552380D01*
X127152381Y-68933333D01*
X127295238Y-68933333D01*
X127390476Y-68980952D01*
X127438095Y-69028571D01*
X127485714Y-69123809D01*
X127485714Y-69361904D01*
X127438095Y-69457142D01*
X127390476Y-69504761D01*
X127295238Y-69552380D01*
X127009524Y-69552380D01*
X126914286Y-69504761D01*
X126866667Y-69457142D01*
%TO.C,Q1*%
X126461429Y-34667619D02*
X126366191Y-34620000D01*
X126270953Y-34524761D01*
X126128096Y-34381904D01*
X126032858Y-34334285D01*
X125937620Y-34334285D01*
X125985239Y-34572380D02*
X125890001Y-34524761D01*
X125794763Y-34429523D01*
X125747144Y-34239047D01*
X125747144Y-33905714D01*
X125794763Y-33715238D01*
X125890001Y-33620000D01*
X125985239Y-33572380D01*
X126175715Y-33572380D01*
X126270953Y-33620000D01*
X126366191Y-33715238D01*
X126413810Y-33905714D01*
X126413810Y-34239047D01*
X126366191Y-34429523D01*
X126270953Y-34524761D01*
X126175715Y-34572380D01*
X125985239Y-34572380D01*
X127373333Y-34572380D02*
X126801905Y-34572380D01*
X127087619Y-34572380D02*
X127087619Y-33572380D01*
X126992381Y-33715238D01*
X126897143Y-33810476D01*
X126801905Y-33858095D01*
D11*
%TO.C,SGND1*%
X134250694Y-62750000D02*
G75*
G03*
X134250694Y-62750000I-1800694J0D01*
G01*
%TO.C,D12V1*%
X139300694Y-62750000D02*
G75*
G03*
X139300694Y-62750000I-1800694J0D01*
G01*
%TO.C,D1*%
X133220000Y-35120000D02*
X133220000Y-51010000D01*
X133220000Y-35120000D02*
X143460000Y-35120000D01*
X133220000Y-51010000D02*
X143460000Y-51010000D01*
X135800000Y-51010000D02*
X135800000Y-53550000D01*
X140880000Y-51010000D02*
X140880000Y-53535000D01*
X143460000Y-35120000D02*
X143460000Y-51010000D01*
%TO.C,G1*%
X129150694Y-62700000D02*
G75*
G03*
X129150694Y-62700000I-1800694J0D01*
G01*
%TO.C,Q1*%
X121420000Y-35120000D02*
X121420000Y-51010000D01*
X121420000Y-35120000D02*
X131660000Y-35120000D01*
X121420000Y-51010000D02*
X131660000Y-51010000D01*
X124000000Y-51010000D02*
X124000000Y-53550000D01*
X126540000Y-51010000D02*
X126540000Y-53550000D01*
X129080000Y-51010000D02*
X129080000Y-53550000D01*
X131660000Y-35120000D02*
X131660000Y-51010000D01*
%TD*%
M02*
